<svg width="1024" height="1024" viewBox="0 0 1024 1024" fill="none" xmlns="http://www.w3.org/2000/svg">
  <defs>
    <linearGradient id="bg" x1="162" y1="112" x2="868" y2="918" gradientUnits="userSpaceOnUse">
      <stop offset="0" stop-color="#111827"/>
      <stop offset="0.54" stop-color="#0f172a"/>
      <stop offset="1" stop-color="#060b14"/>
    </linearGradient>
    <linearGradient id="cyan" x1="264" y1="232" x2="760" y2="786" gradientUnits="userSpaceOnUse">
      <stop stop-color="#5eead4"/>
      <stop offset="0.48" stop-color="#38bdf8"/>
      <stop offset="1" stop-color="#22c55e"/>
    </linearGradient>
    <linearGradient id="arrow" x1="512" y1="260" x2="512" y2="748" gradientUnits="userSpaceOnUse">
      <stop stop-color="#67e8f9"/>
      <stop offset="1" stop-color="#4ade80"/>
    </linearGradient>
    <filter id="glow" x="104" y="86" width="816" height="858" filterUnits="userSpaceOnUse" color-interpolation-filters="sRGB">
      <feFlood flood-opacity="0" result="BackgroundImageFix"/>
      <feColorMatrix in="SourceAlpha" type="matrix" values="0 0 0 0 0 0 0 0 0 0 0 0 0 0 0 0 0 0 127 0" result="hardAlpha"/>
      <feOffset dy="20"/>
      <feGaussianBlur stdDeviation="28"/>
      <feComposite in2="hardAlpha" operator="out"/>
      <feColorMatrix type="matrix" values="0 0 0 0 0.02 0 0 0 0 0.75 0 0 0 0 0.85 0 0 0 0.22 0"/>
      <feBlend mode="normal" in2="BackgroundImageFix" result="drop"/>
      <feBlend mode="normal" in="SourceGraphic" in2="drop" result="shape"/>
    </filter>
  </defs>

  <rect x="80" y="80" width="864" height="864" rx="190" fill="url(#bg)"/>
  <rect x="104" y="104" width="816" height="816" rx="168" stroke="#38bdf8" stroke-opacity="0.18" stroke-width="20"/>

  <g filter="url(#glow)">
    <path d="M512 184 780 338v309L512 802 244 647V338L512 184Z" fill="#0b1220" stroke="url(#cyan)" stroke-width="34" stroke-linejoin="round"/>
    <path d="M512 184v186M244 338l268 154 268-154M244 647l268-155 268 155" stroke="#93c5fd" stroke-opacity="0.42" stroke-width="22" stroke-linecap="round" stroke-linejoin="round"/>

    <circle cx="512" cy="184" r="56" fill="#111827" stroke="#67e8f9" stroke-width="24"/>
    <circle cx="780" cy="338" r="56" fill="#111827" stroke="#38bdf8" stroke-width="24"/>
    <circle cx="780" cy="647" r="56" fill="#111827" stroke="#22c55e" stroke-width="24"/>
    <circle cx="512" cy="802" r="56" fill="#111827" stroke="#f59e0b" stroke-width="24"/>
    <circle cx="244" cy="647" r="56" fill="#111827" stroke="#22c55e" stroke-width="24"/>
    <circle cx="244" cy="338" r="56" fill="#111827" stroke="#38bdf8" stroke-width="24"/>

    <path d="M512 294v318" stroke="#07111f" stroke-width="116" stroke-linecap="round"/>
    <path d="M512 294v318" stroke="url(#arrow)" stroke-width="78" stroke-linecap="round"/>
    <path d="M390 594 512 734l122-140" fill="#07111f" stroke="#07111f" stroke-width="94" stroke-linecap="round" stroke-linejoin="round"/>
    <path d="M390 594 512 734l122-140" stroke="url(#arrow)" stroke-width="58" stroke-linecap="round" stroke-linejoin="round"/>
    <rect x="420" y="710" width="184" height="72" rx="24" fill="#07111f" stroke="#4ade80" stroke-width="28"/>
  </g>
</svg>
